<?xml version="1.0" encoding="UTF-8"?>
<svg width="24px" height="20px" viewBox="0 0 24 20" version="1.1" xmlns="http://www.w3.org/2000/svg" xmlns:xlink="http://www.w3.org/1999/xlink">
    <title>icon-Wechat@2x</title>
    <g id="Website-DESKTOP" stroke="none" stroke-width="1" fill="none" fill-rule="evenodd">
        <g id="Component/Footer" transform="translate(-50.000000, -40.000000)" fill="#000000" fill-rule="nonzero">
            <g id="icon-Wechat" transform="translate(50.000000, 40.000000)">
                <path d="M16.7161165,6.67611097 C20.6892274,6.67611097 23.909988,9.35636932 23.909988,12.6626354 C23.909988,14.4373019 22.981899,16.0316652 21.5076021,17.1279122 C21.3027356,17.2812751 21.2105674,17.5430405 21.2741534,17.7909261 L21.600199,19.0753829 C21.6248812,19.1725693 21.5875629,19.2749587 21.5061331,19.3334701 C21.4247033,19.3919814 21.3157588,19.394689 21.2315229,19.340295 L19.7141064,18.3603648 C19.55707,18.2591642 19.363411,18.2323251 19.1847713,18.2870045 C18.3842311,18.5287248 17.5523525,18.6507626 16.7161165,18.6491598 C12.7430056,18.6491598 9.52216355,15.9689014 9.52216355,12.6626354 C9.52216355,9.35636932 12.7430056,6.67611097 16.7161165,6.67611097 Z M8.63833526,0 C12.9458875,0 16.5167396,2.62393397 17.169483,6.05589061 C17.0194205,6.04855458 16.8682983,6.04447902 16.7161165,6.04447902 C12.4012283,6.04447902 8.89102064,9.01328779 8.89102064,12.6624723 C8.89118382,13.2397109 8.97975389,13.8135196 9.15365045,14.3639416 C8.98288402,14.3722558 8.81130249,14.3769834 8.63833526,14.3769834 C7.62753682,14.3789888 6.62207318,14.2304769 5.65501747,13.9363327 C5.45228881,13.874184 5.23246221,13.9047313 5.05435986,14.0198004 L3.11129073,15.2746687 C3.02705483,15.3290627 2.9181103,15.326355 2.8366805,15.2678437 C2.7552507,15.2093323 2.71793247,15.1069429 2.74261459,15.0097566 L3.1717722,13.3193728 C3.24384015,13.0362741 3.13754182,12.7377046 2.90278452,12.5638435 C1.12216766,11.2469451 0,9.32686221 0,7.18849173 C0,3.21839672 3.86755365,0 8.63833526,0 Z M14.3114483,9.74493425 C13.9089969,9.74493425 13.5461751,9.98736944 13.3921712,10.3591891 C13.2381674,10.7310088 13.3233111,11.1589867 13.6078989,11.4435511 C13.8924866,11.7281155 14.3204714,11.8132242 14.6922785,11.6591899 C15.0640856,11.5051556 15.3064911,11.1423139 15.3064581,10.7398626 C15.3064581,10.4759771 15.2016244,10.2229008 15.0150215,10.0363132 C14.8284187,9.8497256 14.5753338,9.74491264 14.3114483,9.74493425 Z M19.1208663,9.74493425 C18.718415,9.74493425 18.3555931,9.98736944 18.2015893,10.3591891 C18.0475855,10.7310088 18.1327292,11.1589867 18.4173169,11.4435511 C18.7019046,11.7281155 19.1298895,11.8132242 19.5016966,11.6591899 C19.8735037,11.5051556 20.1159091,11.1423139 20.1158761,10.7398626 C20.1158761,10.4759771 20.0110425,10.2229008 19.8244396,10.0363132 C19.6378367,9.8497256 19.3847518,9.74491264 19.1208663,9.74493425 Z M11.0686492,3.77599789 C10.6221851,3.96092935 10.3310828,4.39659471 10.3310828,4.87984392 C10.3310828,5.1967297 10.456934,5.50064287 10.6810061,5.72471494 C10.9050782,5.94878704 11.2089914,6.07463823 11.5258772,6.07463823 C12.0091263,6.07463823 12.4447917,5.78353593 12.6297232,5.33707191 C12.8146547,4.89060786 12.7124331,4.37670553 12.3707243,4.03499674 C12.0290156,3.69328795 11.5151132,3.59106643 11.0686492,3.77599789 Z M5.75079337,3.68504957 C5.26753676,3.6850166 4.83184638,3.97609801 4.64688924,4.42255942 C4.4619321,4.86902086 4.5641335,5.38293657 4.90583587,5.72466225 C5.24753826,6.06638793 5.76144699,6.16862441 6.20792103,5.98369774 C6.65439509,5.79877104 6.94550619,5.36310053 6.94550619,4.87984392 C6.94550619,4.22000905 6.41062824,3.68509459 5.75079337,3.68504957 Z" id="Combined-Shape"></path>
            </g>
        </g>
    </g>
</svg>