<?xml version="1.0" encoding="UTF-8"?>
<svg width="22px" height="21px" viewBox="0 0 22 21" version="1.1" xmlns="http://www.w3.org/2000/svg" xmlns:xlink="http://www.w3.org/1999/xlink">
    <title>icon-Linkedin@2x</title>
    <g id="Website-DESKTOP" stroke="none" stroke-width="1" fill="none" fill-rule="evenodd">
        <g id="Component/Footer" transform="translate(-103.000000, -40.000000)" fill="#000000" fill-rule="nonzero">
            <g id="Group-16" transform="translate(50.000000, 40.000000)">
                <g id="icon-Linkedin" transform="translate(53.909988, 0.000000)">
                    <path d="M4.57552054,20.1247585 L0.269654359,20.1247585 L0.269654359,6.61456938 L4.57552054,6.61456938 L4.57552054,20.1247585 Z M2.42258745,4.84517489 C1.08462935,4.84517489 0,3.76054555 0,2.42258745 C0,1.08462935 1.08462935,0 2.42258745,0 C3.76054555,0 4.84517492,1.08462935 4.84517492,2.42258745 C4.84517492,3.0650976 4.58993873,3.68129219 4.13561547,4.13561547 C3.68129219,4.58993873 3.0650976,4.84517489 2.42258745,4.84517489 Z M20.104608,20.1247585 L15.8782872,20.1247585 L15.8782872,12.7376026 C15.8782872,12.3622902 15.9375312,9.87359099 13.8240689,9.87359099 C13.061829,9.85464082 12.3383245,10.2089414 11.8859235,10.8227019 C11.4977502,11.3406069 11.2904496,11.9716831 11.2958989,12.6188882 L11.2958989,20.1244566 L7.07471007,20.1244566 L7.07471007,6.61456938 L11.0909223,6.61456938 L11.0909223,8.51067802 C12.0521839,7.03591846 13.2636286,6.49608147 14.4552246,6.27880328 C16.5704227,5.89315152 20.1042306,7.18082089 20.1042306,11.0258672 L20.104608,20.1247585 Z" id="Shape"></path>
                </g>
            </g>
        </g>
    </g>
</svg>